HIERARCHY
ROOT character_A_root
{
	OFFSET 0.000000 0.000000 0.000000
	CHANNELS 6 Xposition Yposition Zposition Xrotation Yrotation Zrotation
	JOINT character_A_pelvis
	{
		OFFSET 0.000000 0.000000 0.000000
		CHANNELS 3 Xrotation Yrotation Zrotation
		JOINT character_A_spine
		{
			OFFSET -0.006400 0.538076 0.000000
			CHANNELS 3 Xrotation Yrotation Zrotation
			JOINT character_A_head
			{
				OFFSET 0.012744 0.245383 0.000000
				CHANNELS 3 Xrotation Yrotation Zrotation
				JOINT character_A_nose
				{
					OFFSET -0.008787 -0.131621 -0.002605
					CHANNELS 3 Xrotation Yrotation Zrotation
					End Site
					{
						OFFSET 0.000000 0.050000 0.000000
					}
				}
			}
			JOINT character_A_left_shoulder
			{
				OFFSET 0.108057 -0.069769 0.094471
				CHANNELS 3 Xrotation Yrotation Zrotation
				JOINT character_A_left_elbow
				{
					OFFSET 0.031628 -0.239596 -0.139088
					CHANNELS 3 Xrotation Yrotation Zrotation
					JOINT character_A_left_wrist
					{
						OFFSET 0.010597 -0.101834 -0.186326
						CHANNELS 3 Xrotation Yrotation Zrotation
						End Site
						{
							OFFSET 0.000000 0.050000 0.000000
						}
					}
				}
			}
			JOINT character_A_right_shoulder
			{
				OFFSET -0.114595 -0.059038 0.102763
				CHANNELS 3 Xrotation Yrotation Zrotation
				JOINT character_A_right_elbow
				{
					OFFSET -0.054650 -0.246550 -0.079184
					CHANNELS 3 Xrotation Yrotation Zrotation
					JOINT character_A_right_wrist
					{
						OFFSET -0.039546 -0.120930 -0.167408
						CHANNELS 3 Xrotation Yrotation Zrotation
						End Site
						{
							OFFSET 0.000000 0.050000 0.000000
						}
					}
				}
			}
		}
		JOINT character_A_left_hip
		{
			OFFSET 0.064495 -0.018473 0.101805
			CHANNELS 3 Xrotation Yrotation Zrotation
			JOINT character_A_left_knee
			{
				OFFSET -0.013415 -0.404926 0.097567
				CHANNELS 3 Xrotation Yrotation Zrotation
				JOINT character_A_left_ankle
				{
					OFFSET -0.033827 -0.357830 0.207383
					CHANNELS 3 Xrotation Yrotation Zrotation
					JOINT character_A_left_big_toe
					{
						OFFSET -0.008355 -0.113888 0.066374
						CHANNELS 3 Xrotation Yrotation Zrotation
						End Site
						{
							OFFSET 0.000000 0.050000 0.000000
						}
					}
					JOINT character_A_left_small_toe
					{
						OFFSET 0.019861 -0.105049 0.045203
						CHANNELS 3 Xrotation Yrotation Zrotation
						End Site
						{
							OFFSET 0.000000 0.050000 0.000000
						}
					}
					JOINT character_A_left_heel
					{
						OFFSET -0.015740 -0.054451 0.041248
						CHANNELS 3 Xrotation Yrotation Zrotation
						End Site
						{
							OFFSET 0.000000 0.050000 0.000000
						}
					}
				}
			}
		}
		JOINT character_A_right_hip
		{
			OFFSET -0.060818 -0.017714 0.289385
			CHANNELS 3 Xrotation Yrotation Zrotation
			JOINT character_A_right_knee
			{
				OFFSET 0.024497 -0.400024 0.102706
				CHANNELS 3 Xrotation Yrotation Zrotation
				JOINT character_A_right_ankle
				{
					OFFSET 0.016037 -0.354408 0.210815
					CHANNELS 3 Xrotation Yrotation Zrotation
					JOINT character_A_right_big_toe
					{
						OFFSET -0.000881 -0.112993 0.055364
						CHANNELS 3 Xrotation Yrotation Zrotation
						End Site
						{
							OFFSET 0.000000 0.050000 0.000000
						}
					}
					JOINT character_A_right_small_toe
					{
						OFFSET -0.021559 -0.104872 0.042888
						CHANNELS 3 Xrotation Yrotation Zrotation
						End Site
						{
							OFFSET 0.000000 0.050000 0.000000
						}
					}
					JOINT character_A_right_heel
					{
						OFFSET 0.008712 -0.057795 0.038858
						CHANNELS 3 Xrotation Yrotation Zrotation
						End Site
						{
							OFFSET 0.000000 0.050000 0.000000
						}
					}
				}
			}
		}
	}
}
MOTION
Frames: 17
Frame Time: 0.03333333
1.200466 -0.014900 1.764428 0.000000 0.000000 0.000000 -0.223733 -2.100365 -3.279819 -6.448851 11.044421 -4.043983 7.017697 -9.183902 43.022730 0.000000 0.000000 -0.000000 11.111815 -2.247559 -0.109624 -18.719128 -13.473202 8.191618 -0.000000 0.000000 0.000000 3.354696 -1.450758 -10.448283 -7.174081 -25.121674 29.213156 -0.000000 0.000000 0.000000 -9.288766 1.993434 4.476137 7.727997 -4.736581 -8.480148 23.470946 -1.394432 30.726050 0.000000 0.000000 -0.000000 0.000000 0.000000 -0.000000 0.000000 0.000000 -0.000000 -9.830180 1.777982 8.761297 -2.828200 -7.523015 -20.388482 97.924964 -45.936218 109.949026 0.000000 0.000000 0.000000 0.000000 0.000000 0.000000 0.000000 0.000000 0.000000
1.175099 -0.030923 1.791694 0.000000 0.000000 0.000000 -0.348776 -1.126457 -3.588383 -6.474696 12.275534 -4.567409 7.362208 -11.328638 43.323290 -0.000000 0.000000 -0.000000 10.793347 -7.660286 6.874146 -21.081384 -15.408331 5.678298 0.000000 0.000000 0.000000 7.264808 -7.507977 0.420137 -4.125122 -21.840857 22.813890 -0.000000 0.000000 0.000000 -9.633325 1.084485 5.379381 9.433477 -4.858074 -8.534575 16.758569 -1.499086 29.714002 0.000000 0.000000 0.000000 0.000000 0.000000 0.000000 0.000000 0.000000 0.000000 -9.061086 1.401748 11.894304 -1.542550 -8.426206 -23.290289 96.256887 -44.694008 109.076584 0.000000 0.000000 0.000000 0.000000 0.000000 0.000000 0.000000 0.000000 0.000000
1.149572 -0.050049 1.821360 0.000000 0.000000 0.000000 -0.349646 0.375841 -4.071889 -6.831088 12.564332 -4.324982 7.862124 -13.128358 43.472169 -0.000000 0.000000 0.000000 9.548630 -13.069524 12.383414 -21.843140 -17.940624 3.905494 0.000000 0.000000 -0.000000 12.924491 -13.171605 13.988346 -2.277898 -22.028411 15.380143 -0.000000 0.000000 0.000000 -10.636178 -0.476107 5.973346 11.032422 -4.921144 -8.504166 16.617024 1.120001 29.986510 0.000000 0.000000 -0.000000 0.000000 0.000000 -0.000000 0.000000 0.000000 -0.000000 -6.498235 0.935608 15.094634 0.330173 -8.458089 -22.773345 88.342193 -43.920417 103.413313 -0.000000 0.000000 0.000000 -0.000000 0.000000 0.000000 -0.000000 0.000000 0.000000
1.127305 -0.073124 1.839181 0.000000 0.000000 0.000000 -0.276467 1.343553 -4.350747 -7.523019 13.349123 -4.116297 8.692261 -14.885036 45.525961 0.000000 0.000000 0.000000 11.156537 -17.366397 17.753137 -23.662697 -21.322979 2.790681 0.000000 0.000000 -0.000000 14.861508 -18.553694 28.937113 1.718604 -28.868173 8.884858 -0.000000 0.000000 -0.000000 -11.791469 -1.564247 5.884884 11.075526 -4.193219 -7.493029 14.917596 -4.510956 32.776971 0.000000 0.000000 0.000000 0.000000 0.000000 0.000000 0.000000 0.000000 0.000000 -5.775764 0.372801 16.531142 4.893275 -6.719263 -17.813366 83.454485 -44.459164 104.527313 -0.000000 0.000000 -0.000000 -0.000000 0.000000 -0.000000 -0.000000 0.000000 -0.000000
1.111369 -0.092112 1.839383 0.000000 0.000000 0.000000 0.078768 2.007240 -4.589486 -8.220825 14.365372 -3.925150 9.244893 -16.605456 47.323066 0.000000 0.000000 -0.000000 13.206955 -20.364305 21.740548 -26.312183 -25.308633 2.552873 0.000000 0.000000 0.000000 13.418903 -24.136200 41.468796 3.421756 -37.151306 1.885389 -0.000000 0.000000 -0.000000 -12.935286 -2.385336 5.497530 10.457432 -3.449318 -6.433374 13.719886 -10.124349 35.970913 0.000000 0.000000 0.000000 0.000000 0.000000 0.000000 0.000000 0.000000 0.000000 -6.484302 -0.352727 17.088513 9.976364 -4.540016 -12.654919 82.509787 -44.800444 107.876042 -0.000000 0.000000 0.000000 -0.000000 0.000000 0.000000 -0.000000 0.000000 0.000000
1.098209 -0.113440 1.798090 0.000000 0.000000 0.000000 0.093010 2.079123 -4.849923 -9.266398 14.661499 -2.989266 10.121145 -17.068478 48.829073 0.000000 0.000000 -0.000000 16.349210 -20.638919 23.443380 -21.707862 -27.632979 4.176451 0.000000 0.000000 -0.000000 12.332611 -27.592765 48.628233 3.402835 -42.818895 -4.217348 -0.000000 0.000000 0.000000 -14.435533 -2.642464 5.238945 9.405354 -2.663415 -5.493681 12.256416 -11.463548 36.429670 -0.000000 0.000000 0.000000 -0.000000 0.000000 0.000000 -0.000000 0.000000 0.000000 -7.026933 -0.446681 18.045930 15.082526 -2.869674 -8.976417 78.682559 -46.388326 112.509085 0.000000 0.000000 0.000000 0.000000 0.000000 0.000000 0.000000 0.000000 0.000000
1.089901 -0.131546 1.741490 0.000000 0.000000 0.000000 -0.496545 0.886400 -5.147173 -9.607185 15.035896 -1.967165 14.549841 -14.497688 48.114840 -0.000000 0.000000 -0.000000 16.330582 -20.476117 23.324948 -8.957855 -27.751996 6.487142 0.000000 0.000000 -0.000000 5.532905 -30.494653 50.258863 12.563032 -51.205965 -8.734719 -0.000000 0.000000 0.000000 -14.660393 -1.558246 5.853180 7.820157 -2.122213 -5.115946 13.680224 -10.294191 36.760426 0.000000 0.000000 0.000000 0.000000 0.000000 0.000000 0.000000 0.000000 0.000000 -7.125231 0.543796 18.265267 18.618611 -1.462262 -6.206174 74.035732 -47.451440 111.997489 0.000000 0.000000 0.000000 0.000000 0.000000 0.000000 0.000000 0.000000 0.000000
1.083493 -0.148790 1.636392 0.000000 0.000000 0.000000 -1.086294 -0.583664 -5.482063 -10.262206 14.475411 -1.189861 22.147387 -9.524542 45.885691 -0.000000 0.000000 -0.000000 16.619470 -19.389194 23.870270 6.155191 -23.951936 6.253890 0.000000 0.000000 -0.000000 -9.169920 -32.756657 45.986963 28.236226 -59.158581 -11.017996 0.000000 0.000000 -0.000000 -15.658700 -0.187876 7.532549 6.881399 -2.251641 -6.556503 14.199647 -4.730655 36.550525 -0.000000 0.000000 -0.000000 -0.000000 0.000000 -0.000000 -0.000000 0.000000 -0.000000 -9.837966 0.980542 17.908979 21.341622 -0.223367 -4.163497 87.396174 -43.077333 124.265845 -0.000000 0.000000 -0.000000 -0.000000 0.000000 -0.000000 -0.000000 0.000000 -0.000000
1.082059 -0.160888 1.550411 0.000000 0.000000 0.000000 -1.508313 -0.820951 -5.538054 -10.273648 14.829898 -0.519294 29.937262 -6.945714 42.572153 0.000000 0.000000 0.000000 14.801638 -21.178265 24.002604 23.058892 -16.135211 0.828829 -0.000000 0.000000 -0.000000 -13.092215 -32.977049 43.021730 44.942651 -58.413860 -10.259216 -0.000000 0.000000 0.000000 -16.107534 0.051568 8.330938 5.885003 -3.092463 -9.384120 13.013067 0.324334 36.500379 0.000000 0.000000 -0.000000 0.000000 0.000000 -0.000000 0.000000 0.000000 -0.000000 -10.492563 0.835514 17.217450 21.696932 0.649618 -2.853121 96.564743 -38.344948 132.541245 -0.000000 0.000000 0.000000 -0.000000 0.000000 0.000000 -0.000000 0.000000 0.000000
1.081293 -0.168575 1.499938 0.000000 0.000000 0.000000 -1.693712 -0.801289 -5.237746 -9.999672 15.083254 -0.987298 35.201549 -5.675955 38.748224 -0.000000 0.000000 0.000000 12.265905 -24.397885 26.417953 36.555104 -8.981099 -9.899243 0.000000 0.000000 -0.000000 -9.142887 -31.192959 42.082630 50.028324 -53.911366 -9.596933 0.000000 0.000000 0.000000 -14.281369 0.334735 8.690228 2.965015 -4.411893 -13.534707 14.894031 5.397755 35.158413 -0.000000 0.000000 0.000000 -0.000000 0.000000 0.000000 -0.000000 0.000000 0.000000 -9.062764 1.165754 16.649293 19.038035 0.995938 -2.590192 105.678983 -31.069260 139.818063 0.000000 0.000000 0.000000 0.000000 0.000000 0.000000 0.000000 0.000000 0.000000
1.079514 -0.172888 1.482916 0.000000 0.000000 0.000000 -1.884945 -0.865577 -5.134896 -9.700305 15.285354 -1.603127 37.771452 -5.271534 35.638416 -0.000000 0.000000 0.000000 8.874084 -28.087836 28.805006 48.477295 -5.497543 -19.832208 -0.000000 0.000000 0.000000 -5.503332 -29.372486 41.119454 51.797260 -50.274789 -8.251011 -0.000000 0.000000 0.000000 -11.698176 0.733018 9.280900 -0.543534 -5.356586 -17.120054 18.224583 7.931341 32.860398 0.000000 0.000000 -0.000000 0.000000 0.000000 -0.000000 0.000000 0.000000 -0.000000 -5.711229 2.075322 16.537624 14.809168 1.130887 -2.762983 112.270044 -24.895214 143.903725 0.000000 0.000000 0.000000 0.000000 0.000000 0.000000 0.000000 0.000000 0.000000
1.076367 -0.174086 1.499370 0.000000 0.000000 0.000000 -1.954315 -1.264079 -4.787867 -9.270745 16.151917 -3.183324 39.803528 -4.954124 33.100569 -0.000000 0.000000 0.000000 9.768188 -29.974784 32.995653 54.180469 -2.091231 -29.504056 -0.000000 0.000000 -0.000000 0.728717 -25.740329 37.799366 50.131136 -46.217412 1.630747 -0.000000 0.000000 -0.000000 -7.981399 1.663039 9.854191 -4.013068 -6.412249 -20.521203 20.454417 10.110275 29.096059 0.000000 0.000000 0.000000 0.000000 0.000000 0.000000 0.000000 0.000000 0.000000 -1.900756 3.470452 16.205955 10.562457 1.185359 -3.057112 112.049934 -23.622018 142.222094 0.000000 0.000000 -0.000000 0.000000 0.000000 -0.000000 0.000000 0.000000 -0.000000
1.073384 -0.174227 1.522856 0.000000 0.000000 0.000000 -1.841121 -1.803153 -4.701864 -9.155260 16.865835 -4.300381 41.186035 -4.644871 31.048198 -0.000000 0.000000 0.000000 12.903525 -29.826346 37.025893 53.730444 0.467802 -35.562097 -0.000000 0.000000 0.000000 5.742092 -22.122081 33.197183 48.693677 -43.514721 14.617648 -0.000000 0.000000 0.000000 -5.139337 2.680119 10.838493 -6.136321 -7.653433 -23.787512 20.713491 11.663812 26.798469 0.000000 0.000000 0.000000 0.000000 0.000000 0.000000 0.000000 0.000000 0.000000 0.937497 4.760129 16.066747 7.388234 1.213831 -3.303604 111.758943 -21.552822 143.365956 -0.000000 0.000000 -0.000000 -0.000000 0.000000 -0.000000 -0.000000 0.000000 -0.000000
1.070105 -0.179089 1.580606 0.000000 0.000000 0.000000 -2.129938 -2.908062 -4.047393 -8.498991 18.036154 -6.928773 42.140417 -3.642156 29.737949 -0.000000 0.000000 0.000000 18.113376 -26.587296 40.737826 44.108568 3.327699 -35.240268 -0.000000 0.000000 -0.000000 14.385330 -16.937034 27.152949 40.815698 -41.844257 35.584815 0.000000 0.000000 0.000000 0.545413 4.548049 10.775957 -9.769703 -4.818640 -18.242398 19.500837 11.734268 23.899060 0.000000 0.000000 0.000000 0.000000 0.000000 0.000000 0.000000 0.000000 0.000000 2.929719 6.412016 15.746267 4.070383 -3.542542 -11.016719 106.666343 -25.818631 132.308679 -0.000000 0.000000 -0.000000 -0.000000 0.000000 -0.000000 -0.000000 0.000000 -0.000000
1.065837 -0.193164 1.640617 0.000000 0.000000 0.000000 -1.932512 -3.236565 -2.704477 -8.079025 18.618576 -9.325608 40.275568 -3.645707 30.750619 -0.000000 0.000000 -0.000000 23.501530 -22.517378 42.808034 25.281129 5.910743 -29.940075 -0.000000 0.000000 -0.000000 24.324376 -12.122131 16.783168 34.430890 -35.007761 49.664847 0.000000 0.000000 0.000000 0.041255 4.821487 9.453451 -6.139268 -5.904091 -18.104604 17.775684 11.842879 26.557840 0.000000 0.000000 -0.000000 0.000000 0.000000 -0.000000 0.000000 0.000000 -0.000000 2.260987 6.742413 15.217559 2.248069 -4.528550 -13.587777 103.581892 -28.868104 124.925294 -0.000000 0.000000 0.000000 -0.000000 0.000000 0.000000 -0.000000 0.000000 0.000000
1.055938 -0.205639 1.709397 0.000000 0.000000 0.000000 -1.060585 -2.900958 -1.883264 -7.539065 18.520801 -11.101253 34.255102 -5.874967 29.470710 -0.000000 0.000000 0.000000 25.256155 -20.750649 44.122504 8.612125 5.016073 -23.261665 0.000000 0.000000 0.000000 31.349868 -9.757133 7.256158 22.117291 -30.685002 55.659745 0.000000 0.000000 0.000000 -1.774880 4.424755 8.877087 -2.312683 -7.799688 -19.617853 19.704052 9.558836 31.179346 0.000000 0.000000 -0.000000 0.000000 0.000000 -0.000000 0.000000 0.000000 -0.000000 3.481878 7.008989 15.169867 -1.422399 -4.725555 -15.198571 101.725806 -29.429175 119.606934 -0.000000 0.000000 -0.000000 -0.000000 0.000000 -0.000000 -0.000000 0.000000 -0.000000
1.045874 -0.218525 1.786940 0.000000 0.000000 0.000000 -0.120248 -2.821080 -0.734980 -7.203573 18.322782 -12.887536 25.199106 -8.618391 29.340368 -0.000000 0.000000 -0.000000 26.945542 -18.356731 44.460424 -5.981405 0.063691 -15.791290 -0.000000 0.000000 -0.000000 36.011468 -8.646282 0.389464 12.022264 -21.409015 47.964102 0.000000 0.000000 -0.000000 -3.893954 4.377696 8.171830 -0.026405 -9.515650 -21.854123 23.699372 7.041475 32.420002 -0.000000 0.000000 -0.000000 -0.000000 0.000000 -0.000000 -0.000000 0.000000 -0.000000 1.119592 6.362811 13.513626 1.190428 -4.620403 -14.097668 105.366540 -28.819749 122.463907 -0.000000 0.000000 -0.000000 -0.000000 0.000000 -0.000000 -0.000000 0.000000 -0.000000
